<?xml version="1.0" standalone="no"?>
<!DOCTYPE svg PUBLIC "-//W3C//DTD SVG 20010904//EN"
 "http://www.w3.org/TR/2001/REC-SVG-20010904/DTD/svg10.dtd">
<svg version="1.0" xmlns="http://www.w3.org/2000/svg"
 width="360.000000pt" height="360.000000pt" viewBox="0 0 360.000000 360.000000"
 preserveAspectRatio="xMidYMid meet">
<metadata>
Created by potrace 1.14, written by Peter Selinger 2001-2017
</metadata>
<g transform="translate(0.000000,360.000000) scale(0.100000,-0.100000)"
fill="#000000" stroke="none">
<path d="M2181 3077 c-64 -33 -94 -77 -99 -148 -5 -66 -2 -70 113 -159 32 -25
74 -60 94 -78 l36 -33 -40 19 c-168 81 -478 134 -672 115 -240 -23 -460 -90
-618 -187 -81 -50 -142 -94 -187 -134 l-49 -44 -117 4 c-64 3 -196 1 -292 -3
l-175 -8 -28 -33 c-25 -30 -27 -38 -21 -93 16 -163 47 -354 70 -428 14 -45 39
-131 55 -191 75 -276 166 -449 321 -606 270 -276 488 -355 978 -355 264 0 404
17 565 70 98 32 289 142 365 210 24 22 32 23 315 28 313 5 342 10 413 64 64
48 81 147 40 232 -21 43 -21 45 -3 55 37 21 74 64 80 92 4 16 11 39 17 50 10
21 6 41 -25 127 -12 33 -78 90 -130 112 -25 10 -71 15 -148 15 -85 0 -110 3
-106 13 4 11 -3 64 -17 132 -13 59 -58 209 -71 234 -8 16 -24 55 -36 86 l-21
56 28 22 c15 12 31 25 36 28 5 3 9 25 10 47 0 30 -7 52 -26 76 -14 19 -26 38
-26 42 0 4 -9 16 -19 28 -28 29 -117 128 -192 211 -34 39 -95 104 -135 145
-39 41 -91 98 -114 125 -68 80 -106 94 -169 62z m-231 -393 c41 -8 82 -16 90
-18 8 -3 23 -5 33 -5 31 -2 17 -16 -46 -45 -201 -93 -307 -243 -307 -429 0
-132 43 -240 127 -326 59 -60 154 -121 189 -121 11 0 -5 -14 -38 -33 -61 -34
-153 -129 -216 -224 -71 -108 -50 -213 68 -334 39 -39 81 -70 127 -92 65 -31
74 -32 222 -37 l154 -5 -39 -26 c-112 -75 -235 -128 -349 -153 -279 -59 -744
-42 -948 34 -179 67 -383 234 -508 416 -35 51 -133 263 -125 271 2 3 20 -6 38
-20 121 -91 302 -135 517 -124 212 10 344 81 454 244 54 80 63 103 76 183 26
160 -52 327 -205 441 -76 56 -191 101 -336 133 -16 4 -28 10 -28 14 0 4 26 25
58 48 183 130 423 212 662 227 86 5 247 -4 330 -19z m415 -176 c113 -57 175
-100 242 -168 74 -75 116 -145 159 -262 31 -84 69 -246 61 -255 -2 -1 -96 -7
-208 -13 -112 -5 -231 -12 -264 -15 -107 -10 -220 10 -310 53 -94 46 -143 91
-180 166 -82 167 -44 330 102 445 145 113 247 126 398 49z m-1685 -173 c208
-8 262 -18 396 -73 139 -58 209 -119 261 -229 47 -98 48 -168 4 -256 -45 -90
-149 -192 -231 -229 -77 -34 -129 -41 -261 -36 -72 3 -135 11 -142 17 -8 6
-17 8 -20 5 -3 -3 -12 -2 -19 2 -7 5 -21 10 -32 11 -41 7 -153 71 -204 118
-69 63 -107 122 -132 205 -24 80 -56 267 -66 378 -6 76 -5 82 12 83 11 1 75 3
143 5 69 2 126 6 129 8 2 3 9 3 15 0 7 -2 73 -6 147 -9z"/>
<path d="M2484 2258 c-38 -44 -44 -55 -53 -104 -13 -66 2 -179 26 -206 30 -34
93 -69 112 -63 10 3 33 37 51 76 30 66 32 77 27 146 -6 77 -18 104 -64 148
-34 31 -73 32 -99 3z"/>
</g>
</svg>
